HIERARCHY
ROOT Hips
{
	OFFSET 0.00000 0.00000 0.00000
	CHANNELS 6 Xposition Yposition Zposition Zrotation Yrotation Xrotation 
	JOINT LHipJoint
	{
		OFFSET 0 0 0
		CHANNELS 3 Zrotation Yrotation Xrotation
		JOINT LeftUpLeg
		{
			OFFSET 1.57358 -1.76629 0.73362
			CHANNELS 3 Zrotation Yrotation Xrotation
			JOINT LeftLeg
			{
				OFFSET 2.40600 -6.61045 0.00000
				CHANNELS 3 Zrotation Yrotation Xrotation
				JOINT LeftFoot
				{
					OFFSET 2.66168 -7.31291 0.00000
					CHANNELS 3 Zrotation Yrotation Xrotation
					JOINT LeftToeBase
					{
						OFFSET 0.20870 -0.57341 2.12506
						CHANNELS 3 Zrotation Yrotation Xrotation
						End Site
						{
							OFFSET 0.00000 -0.00000 1.10557
						}
					}
				}
			}
		}
	}
	JOINT RHipJoint
	{
		OFFSET 0 0 0
		CHANNELS 3 Zrotation Yrotation Xrotation
		JOINT RightUpLeg
		{
			OFFSET -1.49299 -1.76629 0.73362
			CHANNELS 3 Zrotation Yrotation Xrotation
			JOINT RightLeg
			{
				OFFSET -2.43663 -6.69460 0.00000
				CHANNELS 3 Zrotation Yrotation Xrotation
				JOINT RightFoot
				{
					OFFSET -2.62959 -7.22474 0.00000
					CHANNELS 3 Zrotation Yrotation Xrotation
					JOINT RightToeBase
					{
						OFFSET -0.25784 -0.70841 2.21862
						CHANNELS 3 Zrotation Yrotation Xrotation
						End Site
						{
							OFFSET -0.00000 -0.00000 1.16452
						}
					}
				}
			}
		}
	}
	JOINT LowerBack
	{
		OFFSET 0 0 0
		CHANNELS 3 Zrotation Yrotation Xrotation
		JOINT Spine
		{
			OFFSET -0.00034 2.12399 -0.25450
			CHANNELS 3 Zrotation Yrotation Xrotation
			JOINT Spine1
			{
				OFFSET 0.05594 2.14379 -0.03318
				CHANNELS 3 Zrotation Yrotation Xrotation
				JOINT Neck
				{
					OFFSET 0 0 0
					CHANNELS 3 Zrotation Yrotation Xrotation
					JOINT Neck1
					{
						OFFSET -0.09835 1.62725 0.24211
						CHANNELS 3 Zrotation Yrotation Xrotation
						JOINT Head
						{
							OFFSET 0.10849 1.66041 -0.22648
							CHANNELS 3 Zrotation Yrotation Xrotation
							End Site
							{
								OFFSET 0.04385 1.68267 -0.10541
							}
						}
					}
				}
				JOINT LeftShoulder
				{
					OFFSET 0 0 0
					CHANNELS 3 Zrotation Yrotation Xrotation
					JOINT LeftArm
					{
						OFFSET 3.29108 0.79398 -0.68179
						CHANNELS 3 Zrotation Yrotation Xrotation
						JOINT LeftForeArm
						{
							OFFSET 5.15310 -0.00000 -0.00000
							CHANNELS 3 Zrotation Yrotation Xrotation
							JOINT LeftHand
							{
								OFFSET 3.75138 -0.00000 -0.00000
								CHANNELS 3 Zrotation Yrotation Xrotation
								JOINT LeftFingerBase
								{
									OFFSET 0 0 0
									CHANNELS 3 Zrotation Yrotation Xrotation
									JOINT LeftHandIndex1
									{
										OFFSET 0.52917 -0.00000 0.00000
										CHANNELS 3 Zrotation Yrotation Xrotation
										End Site
										{
											OFFSET 0.42663 -0.00000 0.00000
										}
									}
								}
								JOINT LThumb
								{
									OFFSET 0 0 0
									CHANNELS 3 Zrotation Yrotation Xrotation
									End Site
									{
										OFFSET 0.43315 -0.00000 0.43315
									}
								}
							}
						}
					}
				}
				JOINT RightShoulder
				{
					OFFSET 0 0 0
					CHANNELS 3 Zrotation Yrotation Xrotation
					JOINT RightArm
					{
						OFFSET -3.07414 1.06285 -0.44338
						CHANNELS 3 Zrotation Yrotation Xrotation
						JOINT RightForeArm
						{
							OFFSET -5.29613 -0.00000 0.00000
							CHANNELS 3 Zrotation Yrotation Xrotation
							JOINT RightHand
							{
								OFFSET -3.76144 -0.00000 -0.00000
								CHANNELS 3 Zrotation Yrotation Xrotation
								JOINT RightFingerBase
								{
									OFFSET 0 0 0
									CHANNELS 3 Zrotation Yrotation Xrotation
									JOINT RightHandIndex1
									{
										OFFSET -0.74732 -0.00000 0.00000
										CHANNELS 3 Zrotation Yrotation Xrotation
										End Site
										{
											OFFSET -0.60251 -0.00000 0.00000
										}
									}
								}
								JOINT RThumb
								{
									OFFSET 0 0 0
									CHANNELS 3 Zrotation Yrotation Xrotation
									End Site
									{
										OFFSET -0.61171 -0.00000 0.61171
									}
								}
							}
						}
					}
				}
			}
		}
	}
}
MOTION
Frames: 5
Frame Time: .0083333
15.8436 16.8961 -25.8956 0 0 0 0 0 0 -21 0 0 0 0 0 0 0 0 0 0 0 0 0 0 21 0 0 0 0 0 0 0 0 0 0 0 0 0 0 0 0 0 0 0 0 0 0 -16 0 0 21 0 0 11 0 0 0 -8 0 0 0 0 0 0 0 0 0 0 0 0 0 0 0 0 0 0 0 0 8 0 0 0 0 0 0 0 0 0 0 0 0 0 0 0 0 0
15.8436 16.8961 -25.8956 1.6945 -4.1101 -0.7031 0.0000 0.0000 0.0000 -22.5118 -5.4118 -18.7106 5.5172 13.9436 43.0118 1.1157 -1.7102 -19.4701 0.0970 -2.0083 -5.5286 0.0000 0.0000 0.0000 17.9250 2.9705 -12.3692 -16.3530 -19.6781 79.2816 0.1639 -8.6426 2.0086 -0.0343 -1.1950 3.2855 -2.7164 1.7681 11.1499 0.7086 2.0461 0.4597 1.9452 1.0882 -5.8980 -8.8074 -6.5397 -20.9172 12.2374 -8.4028 11.1190 4.4136 -3.2711 7.7712 0.0000 0.0000 0.0000 -82.7450 18.9376 41.1370 116.2649 -57.2258 -82.5342 -0.0000 0.0000 -15.0709 12.8887 12.8536 2.9141 -7.1250 0.0000 -0.0000 -13.0126 42.7766 0.7272 0.0000 0.0000 0.0000 84.4685 -11.5759 49.1736 -131.0543 52.5613 -94.6654 0.0000 -0.0000 -16.0348 -5.2140 17.7536 -1.5939 7.1250 -0.0000 -0.0000 14.9279 -12.5889 11.7299
15.8530 16.8583 -25.5812 1.6564 -4.7168 -0.6056 0.0000 0.0000 0.0000 -22.5758 -4.8361 -17.9041 5.5969 14.0260 43.3418 1.2200 -1.5629 -20.4242 0.1116 -2.1536 -5.9303 0.0000 0.0000 0.0000 17.8353 3.5709 -14.6022 -16.7092 -19.7384 80.3379 0.1669 -7.8383 0.3810 -0.0039 -0.4012 1.1023 -2.5797 1.6695 11.1113 0.7280 1.9342 0.3948 1.9068 1.0309 -5.9345 -8.8848 -6.4522 -20.8473 12.1771 -8.2401 10.9702 4.4291 -3.2088 7.6919 0.0000 0.0000 0.0000 -82.8596 18.5277 40.2750 115.2002 -57.4589 -81.6379 -0.0000 0.0000 -13.8408 13.5939 12.2181 2.9296 -7.1250 0.0000 -0.0000 -12.2331 42.2133 0.8551 0.0000 0.0000 0.0000 84.7171 -12.5084 49.2089 -130.3214 52.8651 -94.0823 0.0000 -0.0000 -15.2343 -6.5768 16.0513 -1.8259 7.1250 -0.0000 -0.0000 14.1073 -14.1612 10.5583
15.8608 16.8611 -25.2662 1.4895 -5.0444 -0.2577 0.0000 0.0000 0.0000 -22.5300 -4.5004 -17.0078 5.5577 13.9856 43.1799 1.2899 -1.4995 -21.0330 0.1757 -2.7004 -7.4457 0.0000 0.0000 0.0000 17.9244 3.9900 -16.9382 -16.8123 -19.7546 80.6430 0.1451 -6.8942 -0.9640 -0.0000 0.0259 -0.0712 -2.2507 1.4460 10.7061 0.7421 1.6891 0.4520 1.7851 0.8983 -5.6237 -8.9244 -6.2576 -21.1817 12.2632 -7.9475 10.9209 4.5035 -3.0533 7.7050 0.0000 -0.0000 0.0000 -83.0097 17.8446 39.1361 114.8279 -57.5376 -81.3238 -0.0000 0.0000 -14.0468 12.8455 12.7228 2.8750 -7.1250 0.0000 -0.0000 -13.0169 42.6422 0.7715 0.0000 -0.0000 0.0000 85.0176 -12.8657 49.0053 -129.5364 53.1808 -93.4551 0.0000 -0.0000 -15.2953 -7.4688 14.5722 -1.8892 7.1250 -0.0000 -0.0000 13.5767 -15.5546 9.7193
15.8729 16.8793 -24.9455 1.2512 -5.5600 -0.0330 0.0000 0.0000 0.0000 -22.4736 -4.0302 -15.8647 5.5085 13.9345 42.9758 1.3470 -1.3832 -21.5368 0.2283 -3.0756 -8.4894 0.0000 0.0000 0.0000 18.2290 4.6373 -18.9472 -16.8064 -19.7537 80.6257 0.1177 -6.0726 -2.3513 -0.0171 0.8454 -2.3235 -1.8629 1.2129 10.3730 0.8724 1.4397 0.7082 1.7496 0.7608 -5.1487 -9.0373 -6.0462 -22.2960 12.2187 -7.5579 11.1981 4.5570 -2.8340 7.9394 -0.0000 -0.0000 0.0000 -83.4049 17.0505 37.8588 114.5968 -57.5858 -81.1288 -0.0000 0.0000 -14.2817 13.1993 13.0030 3.0208 -7.1250 0.0000 -0.0000 -12.7777 42.9572 0.6556 -0.0000 -0.0000 0.0000 84.9695 -12.7603 49.0474 -128.4196 53.6133 -92.5586 0.0000 -0.0000 -15.8907 -9.7833 13.1163 -2.2408 7.1250 -0.0000 -0.0000 12.0701 -16.8571 8.2375
